# xmcd
#
# Track frame offsets:
#	180
#	15651
#	33893
#	51949
#	73187
#	85605
#	98127
#	115957
#	129845
#	145508
#	163046
#	180822
#	199258
#	219523
#	239306
#
# Disc length: 3379 seconds
#
# Revision: 2
# Processed by: cddbd v1.5.2PL0 Copyright (c) Steve Scherf et al.
# Submitted via: audiograbber 1.83.01
#
DISCID=c00d310f
DTITLE=Various Artist - SC8177
DYEAR=1995
DGENRE=Karaoke
TTITLE0=McEntire, Reba - The Greatest Man I Never Knew
TTITLE1=Strait, George - I'd Like To Have That One Back
TTITLE2=Oslin, KT - Come Next Monday
TTITLE3=Carpenter, Mary Chapin - The Hard Way
TTITLE4=Loveless, Patty - Chains
TTITLE5=Strait, George - Overnight Male
TTITLE6=Tucker, Tanya - My Arms Stay Open All Night
TTITLE7=Alabama - I'm In A Hurry And I Don't Know Why
TTITLE8=Lawrence, Tracy - Somebody Paints The Wall
TTITLE9=Carpenter, Mary Chapin - He Thinks He'll Keep Her
TTITLE10=Yearwood, Trisha - You Say You Will
TTITLE11=Judd, Wynonna - Tell Me Why
TTITLE12=Chesnutt, Mark - Almost Goodbye
TTITLE13=Walker, Clay - Where Do I Fit In The Picture
TTITLE14=Diamond Rio - This Romeo Ain't Got Julie Yet
EXTD=
EXTT0=
EXTT1=
EXTT2=
EXTT3=
EXTT4=
EXTT5=
EXTT6=
EXTT7=
EXTT8=
EXTT9=
EXTT10=
EXTT11=
EXTT12=
EXTT13=
EXTT14=
PLAYORDER=
